<svg width="24" height="24" xmlns="http://www.w3.org/2000/svg" viewBox="0 0 24 24"><title>Icon_star</title><g fill="none" class="nc-icon-wrapper"><path d="M3.811 10.233l4.004-.811a1 1 0 0 0 .661-.471l1.649-2.784 1.014-1.714a1 1 0 0 1 1.722 0l2.663 4.498a1 1 0 0 0 .662.47l4.003.812a1 1 0 0 1 .513 1.682l-3.33 3.375a1 1 0 0 0-.27.896l.75 3.801a1 1 0 0 1-1.432 1.086l-3.968-2.01a1 1 0 0 0-.904 0l-3.968 2.01a1 1 0 0 1-1.433-1.086l.75-3.801a1 1 0 0 0-.269-.896l-3.33-3.375a1 1 0 0 1 .513-1.682z" fill="#e0274b"></path></g></svg>